# Blender v2.79 (sub 0) OBJ File: ''
# www.blender.org
mtllib 1.mtl
o Torus.000_Torus.003
v -0.625000 0.000000 -1.082532
v -0.608253 0.125000 -1.053526
v -0.562500 0.216506 -0.974279
v -0.500000 0.250000 -0.866026
v -0.437500 0.216506 -0.757772
v -0.391747 0.125000 -0.678525
v -0.375000 0.000000 -0.649519
v -0.391747 -0.125000 -0.678525
v -0.437500 -0.216506 -0.757772
v -0.500000 -0.250000 -0.866026
v -0.562500 -0.216506 -0.974279
v -0.608253 -0.125000 -1.053526
v -1.082532 0.000000 -0.625000
v -1.053525 0.125000 -0.608253
v -0.974278 0.216506 -0.562500
v -0.866025 0.250000 -0.500000
v -0.757772 0.216506 -0.437500
v -0.678525 0.125000 -0.391747
v -0.649519 0.000000 -0.375000
v -0.678525 -0.125000 -0.391747
v -0.757772 -0.216506 -0.437500
v -0.866025 -0.250000 -0.500000
v -0.974278 -0.216506 -0.562500
v -1.053525 -0.125000 -0.608253
v -1.082532 0.000000 0.625000
v -1.053526 0.125000 0.608253
v -0.974279 0.216506 0.562500
v -0.866026 0.250000 0.500000
v -0.757772 0.216506 0.437500
v -0.678525 0.125000 0.391747
v -0.649519 0.000000 0.375000
v -0.678525 -0.125000 0.391747
v -0.757772 -0.216506 0.437500
v -0.866026 -0.250000 0.500000
v -0.974279 -0.216506 0.562500
v -1.053526 -0.125000 0.608253
v -0.625000 0.000000 1.082532
v -0.608253 0.125000 1.053526
v -0.562500 0.216506 0.974279
v -0.500000 0.250000 0.866026
v -0.437500 0.216506 0.757772
v -0.391747 0.125000 0.678525
v -0.375000 0.000000 0.649519
v -0.391747 -0.125000 0.678525
v -0.437500 -0.216506 0.757772
v -0.500000 -0.250000 0.866026
v -0.562500 -0.216506 0.974279
v -0.608253 -0.125000 1.053526
v 0.500000 0.250000 0.866025
v 0.866025 0.250000 0.500000
v 0.437500 -0.216506 0.757772
v 0.500000 -0.250000 0.866025
v 0.678525 -0.125000 0.391747
v 0.757772 -0.216506 0.437500
v 0.562500 -0.216506 0.974279
v 0.974279 -0.216506 0.562500
v 0.757772 0.216506 0.437500
v 0.391747 0.125000 0.678525
v 0.375000 0.000000 0.649519
v 0.625000 0.000000 1.082532
v 1.082532 0.000000 0.625000
v 0.608253 0.125000 1.053525
v 0.562500 0.216506 0.974279
v 1.053525 -0.125000 0.608253
v 0.391747 -0.125000 0.678525
v 0.437500 0.216506 0.757772
v 0.866025 -0.250000 0.500000
v 0.649519 0.000000 0.375000
v 0.974279 0.216506 0.562500
v 0.608253 -0.125000 1.053525
v 1.053525 0.125000 0.608253
v 0.678525 0.125000 0.391747
v 0.463397 0.300000 0.902628
v 0.902628 0.300000 0.463398
v 0.388397 -0.259808 0.772724
v 0.463397 -0.300000 0.902628
v 0.677628 -0.150000 0.333494
v 0.772724 -0.259808 0.388398
v 0.538397 -0.259808 1.032532
v 1.032532 -0.259808 0.538398
v 0.772724 0.259808 0.388398
v 0.333494 0.150000 0.677628
v 0.313397 0.000000 0.642820
v 0.613397 0.000000 1.162436
v 1.162436 0.000000 0.613398
v 0.593301 0.150000 1.127628
v 0.538397 0.259808 1.032532
v 1.127628 -0.150000 0.593301
v 0.333494 -0.150000 0.677628
v 0.388397 0.259808 0.772724
v 0.902628 -0.300000 0.463398
v 0.642820 0.000000 0.313398
v 1.032532 0.259808 0.538398
v 0.593301 -0.150000 1.127628
v 1.127628 0.150000 0.593301
v 0.677628 0.150000 0.333494
v 0.625000 0.000000 -1.082532
v 0.608253 0.125000 -1.053525
v 0.866025 -0.250000 -0.500000
v 0.500000 -0.250000 -0.866025
v 0.437500 0.216506 -0.757772
v 0.391747 0.125000 -0.678525
v 0.649519 0.000000 -0.375000
v 0.375000 0.000000 -0.649519
v 0.866025 0.250000 -0.500000
v 0.500000 0.250000 -0.866025
v 1.082532 0.000000 -0.625000
v 1.053525 0.125000 -0.608253
v 0.678525 -0.125000 -0.391747
v 0.757772 -0.216506 -0.437500
v 0.608253 -0.125000 -1.053525
v 0.437500 -0.216506 -0.757772
v 0.678525 0.125000 -0.391747
v 0.974279 0.216506 -0.562500
v 0.562500 0.216506 -0.974279
v 0.391747 -0.125000 -0.678525
v 0.757772 0.216506 -0.437500
v 0.974279 -0.216506 -0.562500
v 1.053525 -0.125000 -0.608253
v 0.562500 -0.216506 -0.974279
v 0.613397 -0.000000 -1.162436
v 0.593301 0.150000 -1.127628
v 0.902628 -0.300000 -0.463398
v 0.463397 -0.300000 -0.902628
v 0.388397 0.259808 -0.772724
v 0.333494 0.150000 -0.677628
v 0.642820 -0.000000 -0.313398
v 0.313397 -0.000000 -0.642820
v 0.902628 0.300000 -0.463398
v 0.463397 0.300000 -0.902628
v 1.162436 -0.000000 -0.613398
v 1.127628 0.150000 -0.593301
v 0.677628 -0.150000 -0.333494
v 0.772724 -0.259808 -0.388398
v 0.593301 -0.150000 -1.127628
v 0.388397 -0.259808 -0.772724
v 0.677628 0.150000 -0.333494
v 1.032532 0.259808 -0.538398
v 0.538397 0.259808 -1.032532
v 0.333494 -0.150000 -0.677628
v 0.772724 0.259808 -0.388398
v 1.032532 -0.259808 -0.538398
v 1.127628 -0.150000 -0.593301
v 0.538397 -0.259808 -1.032532
v -0.677628 0.150000 0.333493
v -0.333493 0.150000 0.677628
v -0.902628 -0.300000 0.463397
v -0.463397 -0.300000 0.902628
v -0.593301 0.150000 1.127628
v -0.538397 0.259808 1.032532
v -0.902628 0.300000 0.463397
v -0.772724 0.259808 0.388397
v -0.677628 -0.150000 0.333493
v -0.772724 -0.259808 0.388397
v -0.613397 -0.000000 1.162436
v -0.593301 -0.150000 1.127628
v -0.538397 -0.259808 1.032532
v -0.313397 -0.000000 0.642820
v -0.333493 -0.150000 0.677628
v -1.162436 -0.000000 0.613397
v -1.127628 -0.150000 0.593301
v -0.388397 -0.259808 0.772724
v -1.032532 0.259808 0.538397
v -0.388397 0.259808 0.772724
v -0.463397 0.300000 0.902628
v -0.642820 -0.000000 0.313397
v -1.032532 -0.259808 0.538397
v -1.127628 0.150000 0.593301
v -0.463397 0.300000 -0.902628
v -0.388397 0.259808 -0.772724
v -0.772724 -0.259808 -0.388398
v -0.902628 -0.300000 -0.463398
v -0.313397 0.000000 -0.642820
v -0.642820 0.000000 -0.313398
v -0.902628 0.300000 -0.463398
v -0.772724 0.259808 -0.388398
v -0.677628 0.150000 -0.333494
v -0.538397 -0.259808 -1.032532
v -1.032532 -0.259808 -0.538398
v -0.333494 0.150000 -0.677628
v -0.613397 0.000000 -1.162436
v -0.593301 0.150000 -1.127628
v -0.677628 -0.150000 -0.333494
v -0.388397 -0.259808 -0.772724
v -0.463397 -0.300000 -0.902628
v -1.162435 0.000000 -0.613398
v -1.127628 0.150000 -0.593302
v -0.593301 -0.150000 -1.127628
v -1.127628 -0.150000 -0.593302
v -0.538397 0.259808 -1.032532
v -0.333494 -0.150000 -0.677628
v -1.032532 0.259808 -0.538398
vn 0.6846 0.2506 0.6846
vn 0.5086 0.6947 0.5086
vn 0.1890 0.9636 0.1890
vn -0.1890 0.9636 -0.1890
vn -0.5086 0.6947 -0.5086
vn -0.6846 0.2506 -0.6846
vn -0.6846 -0.2506 -0.6846
vn -0.5086 -0.6947 -0.5086
vn -0.1890 -0.9636 -0.1890
vn 0.1890 -0.9636 0.1890
vn 0.5086 -0.6947 0.5086
vn 0.6846 -0.2506 0.6846
vn 0.6846 0.2506 -0.6846
vn 0.5086 0.6947 -0.5086
vn 0.1890 0.9636 -0.1890
vn -0.1890 0.9636 0.1890
vn -0.5086 0.6947 0.5086
vn -0.6846 0.2506 0.6846
vn -0.6846 -0.2506 0.6846
vn -0.5086 -0.6947 0.5086
vn -0.1890 -0.9636 0.1890
vn 0.1890 -0.9636 -0.1890
vn 0.5086 -0.6947 -0.5086
vn 0.6846 -0.2506 -0.6846
usemtl None
s off
f 84//1 85//1 95//1 86//1
f 86//2 95//2 93//2 87//2
f 87//3 93//3 74//3 73//3
f 73//4 74//4 81//4 90//4
f 90//5 81//5 96//5 82//5
f 82//6 96//6 92//6 83//6
f 83//7 92//7 77//7 89//7
f 89//8 77//8 78//8 75//8
f 75//9 78//9 91//9 76//9
f 76//10 91//10 80//10 79//10
f 79//11 80//11 88//11 94//11
f 94//12 88//12 85//12 84//12
f 131//13 121//13 122//13 132//13
f 132//14 122//14 139//14 138//14
f 138//15 139//15 130//15 129//15
f 129//16 130//16 125//16 141//16
f 141//17 125//17 126//17 137//17
f 137//18 126//18 128//18 127//18
f 127//19 128//19 140//19 133//19
f 133//20 140//20 136//20 134//20
f 134//21 136//21 124//21 123//21
f 123//22 124//22 144//22 142//22
f 142//23 144//23 135//23 143//23
f 143//24 135//24 121//24 131//24
f 160//18 155//18 149//18 168//18
f 168//17 149//17 150//17 163//17
f 163//16 150//16 165//16 151//16
f 151//15 165//15 164//15 152//15
f 152//14 164//14 146//14 145//14
f 145//13 146//13 158//13 166//13
f 166//24 158//24 159//24 153//24
f 153//23 159//23 162//23 154//23
f 154//22 162//22 148//22 147//22
f 147//21 148//21 157//21 167//21
f 167//20 157//20 156//20 161//20
f 161//19 156//19 155//19 160//19
f 181//6 186//6 187//6 182//6
f 182//5 187//5 192//5 190//5
f 190//4 192//4 175//4 169//4
f 169//3 175//3 176//3 170//3
f 170//2 176//2 177//2 180//2
f 180//1 177//1 174//1 173//1
f 173//12 174//12 183//12 191//12
f 191//11 183//11 171//11 184//11
f 184//10 171//10 172//10 185//10
f 185//9 172//9 179//9 178//9
f 178//8 179//8 189//8 188//8
f 188//7 189//7 186//7 181//7
l 4 5
l 21 22
l 38 39
l 16 17
l 17 18
l 28 29
l 32 33
l 37 48
l 5 6
l 47 48
l 43 44
l 25 36
l 1 2
l 27 28
l 20 21
l 9 10
l 13 14
l 39 40
l 31 32
l 35 36
l 6 7
l 44 45
l 2 3
l 40 41
l 26 27
l 10 11
l 23 24
l 14 15
l 19 20
l 1 12
l 34 35
l 30 31
l 45 46
l 7 8
l 3 4
l 41 42
l 22 23
l 11 12
l 25 26
l 37 38
l 15 16
l 18 19
l 29 30
l 13 24
l 33 34
l 46 47
l 8 9
l 42 43
l 51 52
l 53 54
l 50 57
l 58 59
l 62 63
l 56 64
l 65 51
l 68 53
l 61 64
l 69 50
l 60 70
l 59 65
l 63 49
l 55 70
l 67 56
l 72 68
l 71 69
l 49 66
l 52 55
l 54 67
l 57 72
l 61 71
l 60 62
l 66 58
l 97 98
l 101 102
l 107 108
l 109 110
l 97 111
l 112 100
l 106 101
l 116 112
l 105 117
l 118 119
l 100 120
l 103 109
l 107 119
l 115 106
l 104 116
l 99 118
l 114 105
l 120 111
l 113 103
l 98 115
l 102 104
l 108 114
l 110 99
l 117 113
