# Blender v2.79 (sub 0) OBJ File: 'untitled.blend'
# www.blender.org
mtllib wheelwhite.mtl
o Torus.000_Torus.002
v 0.447765 1.195484 1.194918
v 0.400343 1.297122 1.207038
v 0.293787 1.322225 1.234273
v 0.208336 1.251889 1.256113
v 0.208336 1.139079 1.256113
v 0.293787 1.068744 1.234273
v 0.400343 1.093846 1.207038
v 0.119291 1.195484 0.858756
v 0.106077 1.297122 0.905885
v 0.076385 1.322225 1.011782
v 0.052573 1.251889 1.096705
v 0.052573 1.139079 1.096705
v 0.076385 1.068744 1.011782
v 0.106077 1.093846 0.905885
v -0.123983 1.195484 0.855942
v -0.111862 1.297122 0.903363
v -0.084628 1.322225 1.009919
v -0.062787 1.251889 1.095371
v -0.084628 1.068744 1.009919
v -0.111862 1.093846 0.903363
v -0.460145 1.195484 1.184415
v -0.413016 1.297122 1.197629
v -0.307118 1.322225 1.227322
v -0.307118 1.068744 1.227322
v -0.413016 1.093846 1.197629
v -0.462959 1.195484 1.427689
v -0.415537 1.297122 1.415568
v -0.308981 1.322225 1.388334
v -0.223530 1.251889 1.366493
v -0.415537 1.093846 1.415568
v -0.134485 1.195484 1.763851
v -0.121271 1.297122 1.716722
v -0.091579 1.322225 1.610825
v -0.091579 1.068744 1.610825
v -0.121271 1.093846 1.716722
v 0.108789 1.195484 1.766665
v 0.096668 1.297122 1.719243
v 0.069433 1.322225 1.612687
v 0.069433 1.068744 1.612687
v 0.096668 1.093846 1.719243
v 0.444951 1.195484 1.438192
v 0.397822 1.297122 1.424977
v 0.291924 1.322225 1.395285
v 0.207001 1.251889 1.371474
v 0.207001 1.139079 1.371474
v 0.291924 1.068744 1.395285
v 0.397822 1.093846 1.424977
v -0.072184 1.130094 1.113286
v -0.097504 1.048553 1.014222
v 0.138900 1.195484 0.838977
v 0.123580 1.313314 0.893614
v 0.123580 1.077655 0.893614
v -0.129077 1.077655 0.890691
v -0.143128 1.195484 0.835715
v 0.089158 1.342415 1.016381
v -0.097504 1.342415 1.014222
v -0.129077 1.313314 0.890691
v 0.061553 1.130094 1.114833
v 0.089158 1.048553 1.016381
v 0.061553 1.260875 1.114833
v -0.072184 1.260875 1.113286
v 0.414185 1.076160 1.188234
v 0.411225 1.076160 1.444096
v 0.188767 1.261704 1.245849
v 0.187200 1.261704 1.381283
v 0.289087 1.046690 1.220208
v 0.286900 1.046690 1.409238
v 0.414185 1.314808 1.188234
v 0.411225 1.314808 1.444096
v 0.466554 1.195484 1.459610
v 0.187200 1.129265 1.381283
v 0.188767 1.129265 1.245849
v 0.289087 1.344279 1.220208
v 0.469858 1.195484 1.174005
v 0.286900 1.344279 1.409238
v 0.064048 1.256083 1.531224
v 0.064048 1.134885 1.531224
v -0.225802 1.256083 1.234590
v -0.227236 1.256083 1.358529
v -0.430812 1.086288 1.177108
v -0.433521 1.086288 1.411253
v -0.430812 1.304680 1.177108
v -0.317040 1.331650 1.209008
v -0.433521 1.304680 1.411253
v -0.484469 1.195484 1.424275
v -0.225802 1.134885 1.234590
v -0.117373 1.304680 1.734801
v 0.116772 1.304680 1.737510
v -0.481446 1.195484 1.162911
v -0.117373 1.086288 1.734801
v 0.116772 1.086288 1.737510
v -0.131570 1.195484 1.785434
v -0.319041 1.331650 1.381993
v 0.129794 1.195484 1.788458
v -0.059891 1.134885 1.529791
v -0.059891 1.256083 1.529791
v 0.087513 1.331650 1.623030
v -0.085473 1.331650 1.621029
v -0.227236 1.134885 1.358529
v -0.085473 1.059319 1.621029
v -0.319041 1.059319 1.381993
v 0.087513 1.059319 1.623030
v -0.317040 1.059319 1.209008
vn -0.7071 -0.2280 0.6693
vn 0.8496 0.4978 -0.1741
vn 0.7561 0.5567 0.3440
vn 0.7561 -0.5567 0.3440
vn 0.8496 -0.4978 -0.1741
vn -0.7639 0.5567 0.3264
vn 0.6912 0.2315 -0.6846
vn -0.1540 0.1875 0.9701
vn 0.7004 0.2315 -0.6751
vn 0.3373 -0.7501 -0.5688
vn 0.5764 -0.7501 -0.3240
vn 0.3373 0.7501 -0.5688
vn 0.6472 0.7561 0.0971
vn -0.1540 -0.1875 0.9701
vn -0.3264 0.5567 -0.7639
vn -0.6693 0.2280 -0.7071
vn -0.3440 0.5567 0.7561
vn 0.4645 0.0000 -0.8856
vn 0.4439 0.0000 0.8961
vn 0.1937 -0.4978 -0.8454
vn 0.1741 0.4978 0.8496
vn 0.0105 0.4218 -0.9066
vn 0.0027 0.9732 -0.2299
vn -0.0074 0.7711 0.6366
vn -0.0116 0.0000 0.9999
vn -0.0074 -0.7711 0.6366
vn 0.0027 -0.9732 -0.2299
vn 0.0105 -0.4218 -0.9066
vn -0.7071 0.2280 0.6693
vn 0.6914 -0.2280 0.6855
vn 0.6914 0.2280 0.6855
vn -0.8454 -0.4978 -0.1937
vn -0.7639 -0.5567 0.3264
vn 0.9066 0.4218 0.0105
vn 0.2299 0.9732 0.0027
vn -0.6366 0.7711 -0.0074
vn -0.9999 0.0000 -0.0116
vn -0.6366 -0.7711 -0.0074
vn 0.2299 -0.9732 0.0027
vn 0.9066 -0.4218 0.0105
vn -0.3440 -0.5567 0.7561
vn 0.1741 -0.4978 0.8496
vn -0.6855 0.2280 0.6914
vn -0.6693 -0.2280 -0.7071
vn -0.6855 -0.2280 0.6914
vn -0.3264 -0.5567 -0.7639
vn -0.9066 0.4218 -0.0105
vn -0.2299 0.9732 -0.0027
vn 0.6366 0.7711 0.0074
vn 0.9999 0.0000 0.0116
vn 0.6366 -0.7711 0.0074
vn -0.2299 -0.9732 -0.0027
vn -0.9066 -0.4218 -0.0105
vn -0.0105 0.4218 0.9066
vn -0.0027 0.9732 0.2299
vn 0.0074 0.7711 -0.6366
vn 0.0116 0.0000 -0.9999
vn 0.0074 -0.7711 -0.6366
vn -0.0027 -0.9732 0.2299
vn -0.0105 -0.4218 0.9066
vn 0.7004 -0.2315 -0.6751
vn -0.9734 -0.1875 0.1315
vn -0.7947 0.6017 -0.0802
vn -0.9734 0.1875 0.1315
vn -0.7947 -0.6017 -0.0802
vn 0.6912 -0.2315 -0.6846
vn 0.0618 0.6017 0.7963
vn 0.5764 0.7501 -0.3240
usemtl None
s off
f 15//1 16//1 57//1 54//1
f 13//2 12//2 58//2 59//2
f 14//3 13//3 59//3 52//3
f 10//4 9//4 51//4 55//4
f 11//5 10//5 55//5 60//5
f 19//6 20//6 53//6 49//6
f 21//7 25//7 80//7 89//7
f 26//8 27//8 84//8 85//8
f 40//9 36//9 94//9 91//9
f 23//10 22//10 82//10 83//10
f 37//11 38//11 97//11 88//11
f 25//12 24//12 103//12 80//12
f 28//13 29//13 79//13 93//13
f 30//14 26//14 85//14 81//14
f 6//15 7//15 62//15 66//15
f 7//16 1//16 74//16 62//16
f 47//17 46//17 67//17 63//17
f 4//18 5//18 72//18 64//18
f 45//19 44//19 65//19 71//19
f 3//20 4//20 64//20 73//20
f 46//21 45//21 71//21 67//21
f 50//22 54//22 57//22 51//22
f 51//23 57//23 56//23 55//23
f 55//24 56//24 61//24 60//24
f 60//25 61//25 48//25 58//25
f 58//26 48//26 49//26 59//26
f 59//27 49//27 53//27 52//27
f 52//28 53//28 54//28 50//28
f 20//29 15//29 54//29 53//29
f 9//30 8//30 50//30 51//30
f 8//31 14//31 52//31 50//31
f 17//32 18//32 61//32 56//32
f 16//33 17//33 56//33 57//33
f 70//34 74//34 68//34 69//34
f 69//35 68//35 73//35 75//35
f 75//36 73//36 64//36 65//36
f 65//37 64//37 72//37 71//37
f 71//38 72//38 66//38 67//38
f 67//39 66//39 62//39 63//39
f 63//40 62//40 74//40 70//40
f 43//41 42//41 69//41 75//41
f 44//42 43//42 75//42 65//42
f 41//43 47//43 63//43 70//43
f 1//44 2//44 68//44 74//44
f 42//45 41//45 70//45 69//45
f 2//46 3//46 73//46 68//46
f 89//47 85//47 84//47 82//47
f 82//48 84//48 93//48 83//48
f 83//49 93//49 79//49 78//49
f 78//50 79//50 99//50 86//50
f 86//51 99//51 101//51 103//51
f 103//52 101//52 81//52 80//52
f 80//53 81//53 85//53 89//53
f 92//54 94//54 88//54 87//54
f 87//55 88//55 97//55 98//55
f 98//56 97//56 76//56 96//56
f 96//57 76//57 77//57 95//57
f 95//58 77//58 102//58 100//58
f 100//59 102//59 91//59 90//59
f 90//60 91//60 94//60 92//60
f 36//61 37//61 88//61 94//61
f 31//62 35//62 90//62 92//62
f 33//63 32//63 87//63 98//63
f 32//64 31//64 92//64 87//64
f 35//65 34//65 100//65 90//65
f 22//66 21//66 89//66 82//66
f 27//67 28//67 93//67 84//67
f 39//68 40//68 91//68 102//68
