# Blender v2.79 (sub 0) OBJ File: ''
# www.blender.org
mtllib terrain.mtl
o Plane
v -3.000000 0.144985 5.961626
v 3.000000 0.050214 5.961626
v -3.000000 0.144983 -5.961626
v 3.000000 0.050212 -5.961626
v -3.000000 -0.335034 0.000000
v 0.000000 0.050214 5.961626
v 3.000000 -0.335034 0.000000
v 0.000000 0.050212 -5.961626
v 0.000000 -0.335034 0.000000
v -3.000000 0.144984 1.500000
v 1.500000 0.050214 5.961626
v 3.000000 0.144984 -1.500000
v -1.500000 0.050212 -5.961626
v -3.000000 0.144984 -1.500000
v -1.500000 0.000001 5.961626
v 3.000000 0.144984 1.500000
v 1.500000 0.144983 -5.961626
v 0.000000 0.050213 -1.500000
v 0.000000 0.050213 1.500000
v -1.500000 -0.335034 0.000000
v 1.500000 -0.335034 0.000000
v 1.500000 0.008358 1.500000
v -1.500000 0.050213 1.500000
v -1.500000 0.144984 -1.500000
v 1.500000 0.144984 -1.500000
v -3.000000 0.008358 3.746048
v 2.250000 0.050214 5.961626
v 3.000000 0.144984 -3.746048
v -2.250000 0.144983 -5.961626
v -3.000000 -0.335034 -0.750000
v -0.750000 0.050214 5.961626
v 3.000000 -0.335034 0.750000
v 0.750000 0.050212 -5.961626
v 0.000000 0.050213 -3.746048
v 0.000000 -0.335034 0.750000
v -2.250000 -0.335034 0.000000
v 0.750000 -0.335034 0.000000
v -3.000000 -0.335034 0.750000
v 0.750000 0.050214 5.961626
v 3.000000 -0.335034 -0.750000
v -0.750000 0.050212 -5.961626
v -3.000000 0.144984 -3.746048
v -2.250000 0.144985 5.961626
v 3.000000 0.144984 3.746048
v 2.250000 0.050212 -5.961626
v 0.000000 -0.335034 -0.750000
v 0.000000 0.144984 3.746048
v -0.750000 -0.335034 0.000000
v 2.250000 -0.335034 0.000000
v 1.500000 -0.335034 0.750000
v 1.500000 0.050213 3.746048
v 0.750000 0.144984 1.500000
v 2.250000 0.144984 1.500000
v -1.500000 -0.335034 0.750000
v -1.500000 0.050213 3.746048
v -2.250000 0.050213 1.500000
v -0.750000 0.144984 1.500000
v -1.500000 0.050213 -3.746048
v -1.500000 -0.335034 -0.750000
v -2.250000 0.144984 -1.500000
v -0.750000 0.144984 -1.500000
v 1.500000 0.050213 -3.746048
v 1.500000 -0.335034 -0.750000
v 0.750000 0.144984 -1.500000
v 2.250000 0.050213 -1.500000
v 2.250000 -0.335034 -0.750000
v 0.750000 -0.335034 -0.750000
v 0.750000 0.050213 -3.746048
v -0.750000 -0.335034 -0.750000
v -2.250000 -0.335034 -0.750000
v -2.250000 0.050213 -3.746048
v -0.750000 0.050213 3.746048
v -2.250000 0.144984 3.746048
v -2.250000 -0.335034 0.750000
v 2.250000 0.050213 3.746048
v 0.750000 0.050213 3.746048
v 0.750000 -0.335034 0.750000
v 2.250000 -0.335034 0.750000
v -0.750000 -0.335034 0.750000
v -0.750000 0.050213 -3.746048
v 2.250000 0.144984 -3.746048
v -3.000000 0.050213 4.880977
v 2.625000 0.144985 5.961626
v 3.000000 0.144984 -4.880977
v -2.625000 0.144983 -5.961626
v -3.000000 -0.335034 -0.375000
v -0.375000 0.008359 5.961626
v 3.000000 -0.335034 0.375000
v 0.375000 0.008357 -5.961626
v 0.000000 0.144984 -4.880977
v 0.000000 -0.335034 0.375000
v -2.625000 -0.335034 0.000000
v 0.375000 -0.335034 0.000000
v -3.000000 -0.321303 1.125000
v 1.125000 0.144985 5.961626
v 3.000000 -0.321304 -1.125000
v -1.125000 0.144983 -5.961626
v -3.000000 0.144984 -2.420852
v -1.875000 0.050214 5.961626
v 3.000000 0.144984 2.420852
v 1.875000 0.144983 -5.961626
v 0.000000 -0.335034 -1.125000
v 0.000000 0.050213 2.420852
v -1.125000 -0.335034 0.000000
v 1.875000 -0.335034 0.000000
v 1.500000 -0.335034 0.375000
v 1.500000 0.050213 2.420852
v 0.375000 0.144984 1.500000
v 1.875000 0.050213 1.500000
v -1.500000 -0.335034 0.375000
v -1.500000 0.144984 2.420852
v -2.625000 0.144984 1.500000
v -1.125000 0.144984 1.500000
v -1.500000 0.008358 -4.880977
v -1.500000 -0.321304 -1.125000
v -2.625000 0.050213 -1.500000
v -1.125000 0.144984 -1.500000
v 1.500000 0.144984 -4.880977
v 1.500000 -0.321304 -1.125000
v 0.375000 0.050213 -1.500000
v 1.875000 0.050213 -1.500000
v -3.000000 0.050213 2.420852
v 1.875000 0.144985 5.961626
v 3.000000 0.144984 -2.420852
v -1.875000 0.050212 -5.961626
v -3.000000 -0.321304 -1.125000
v -1.125000 0.008359 5.961626
v 3.000000 -0.321303 1.125000
v 1.125000 0.050212 -5.961626
v 0.000000 0.144984 -2.420852
v 0.000000 -0.335034 1.125000
v -1.875000 -0.335034 0.000000
v 1.125000 -0.335034 0.000000
v -3.000000 -0.335034 0.375000
v 0.375000 0.144985 5.961626
v 3.000000 -0.335034 -0.375000
v -0.375000 0.144983 -5.961626
v -3.000000 0.050212 -4.880977
v -2.625000 0.050214 5.961626
v 3.000000 0.144984 4.880977
v 2.625000 0.144983 -5.961626
v 0.000000 -0.335034 -0.375000
v 0.000000 0.050213 4.880977
v -0.375000 -0.335034 0.000000
v 2.625000 -0.335034 0.000000
v 1.500000 -0.335034 1.125000
v 1.500000 0.144984 4.880977
v 1.125000 0.050213 1.500000
v 2.625000 0.144984 1.500000
v -1.500000 -0.335034 1.125000
v -1.500000 0.008358 4.880977
v -1.875000 0.050213 1.500000
v -0.375000 0.144984 1.500000
v -1.500000 0.144984 -2.420852
v -1.500000 -0.335034 -0.375000
v -1.875000 0.050213 -1.500000
v -0.375000 0.050213 -1.500000
v 1.500000 0.144984 -2.420852
v 1.500000 -0.335034 -0.375000
v 1.125000 0.144984 -1.500000
v 2.625000 0.144984 -1.500000
v 2.250000 -0.335034 -1.125000
v 2.250000 -0.335034 -0.375000
v 1.875000 -0.335034 -0.750000
v 2.625000 -0.335034 -0.750000
v 0.750000 -0.321304 -1.125000
v 0.750000 -0.335034 -0.375000
v 0.375000 -0.335034 -0.750000
v 1.125000 -0.335034 -0.750000
v 0.750000 0.144984 -4.880977
v 0.750000 0.050213 -2.420852
v 0.375000 0.144984 -3.746048
v 1.125000 0.050213 -3.746048
v -0.750000 -0.321304 -1.125000
v -0.750000 -0.335034 -0.375000
v -1.125000 -0.335034 -0.750000
v -0.375000 -0.335034 -0.750000
v -2.250000 -0.321304 -1.125000
v -2.250000 -0.335034 -0.375000
v -2.625000 -0.335034 -0.750000
v -1.875000 -0.335034 -0.750000
v -2.250000 0.144984 -4.880977
v -2.250000 0.144984 -2.420852
v -2.625000 0.144984 -3.746048
v -1.875000 0.050213 -3.746048
v -0.750000 0.050213 2.420852
v -0.750000 0.144984 4.880977
v -1.125000 0.144984 3.746048
v -0.375000 0.050213 3.746048
v -2.250000 0.050213 2.420852
v -2.250000 0.050213 4.880977
v -2.625000 0.050213 3.746048
v -1.875000 0.050213 3.746048
v -2.250000 -0.335034 0.375000
v -2.250000 -0.335034 1.125000
v -2.625000 -0.335034 0.750000
v -1.875000 -0.335034 0.750000
v 2.250000 0.050213 2.420852
v 2.250000 0.144984 4.880977
v 1.875000 0.144984 3.746048
v 2.625000 0.050213 3.746048
v 0.750000 0.144984 2.420852
v 0.750000 0.144984 4.880977
v 0.375000 0.144984 3.746048
v 1.125000 0.050213 3.746048
v 0.750000 -0.335034 0.375000
v 0.750000 -0.321303 1.125000
v 0.375000 -0.335034 0.750000
v 1.125000 -0.335034 0.750000
v 2.250000 -0.335034 0.375000
v 2.250000 -0.321303 1.125000
v 1.875000 -0.335034 0.750000
v 2.625000 -0.335034 0.750000
v -0.750000 -0.335034 0.375000
v -0.750000 -0.321303 1.125000
v -1.125000 -0.335034 0.750000
v -0.375000 -0.335034 0.750000
v -0.750000 0.144984 -4.880977
v -0.750000 0.144984 -2.420852
v -1.125000 0.144984 -3.746048
v -0.375000 0.050213 -3.746048
v 2.250000 0.050212 -4.880977
v 2.250000 0.144984 -2.420852
v 1.875000 0.050213 -3.746048
v 2.625000 0.050213 -3.746048
v 2.625000 0.144984 -2.420852
v 1.875000 0.050213 -2.420852
v 1.875000 0.050212 -4.880977
v -0.375000 0.144984 -2.420852
v -1.125000 0.144984 -2.420852
v -1.125000 0.050212 -4.880977
v -0.375000 -0.321303 1.125000
v -1.125000 -0.321303 1.125000
v -1.125000 -0.335034 0.375000
v 2.625000 -0.321303 1.125000
v 1.875000 -0.335034 1.125000
v 1.875000 -0.335034 0.375000
v 1.125000 -0.335034 1.125000
v 0.375000 -0.321303 1.125000
v 0.375000 -0.335034 0.375000
v 1.125000 0.144984 4.880977
v 0.375000 0.144984 4.880977
v 0.375000 0.144984 2.420852
v 2.625000 0.050213 4.880977
v 1.875000 0.144984 4.880977
v 1.875000 0.144984 2.420852
v -1.875000 -0.335034 1.125000
v -2.625000 -0.321303 1.125000
v -2.625000 -0.335034 0.375000
v -1.875000 0.008358 4.880977
v -2.625000 0.144984 4.880977
v -2.625000 0.050213 2.420852
v -0.375000 0.050213 4.880977
v -1.125000 0.050213 4.880977
v -1.125000 0.050213 2.420852
v -1.875000 0.144984 -2.420852
v -2.625000 0.050213 -2.420852
v -2.625000 0.144984 -4.880977
v -1.875000 -0.335034 -0.375000
v -2.625000 -0.335034 -0.375000
v -2.625000 -0.335034 -1.125000
v -0.375000 -0.335034 -0.375000
v -1.125000 -0.335034 -0.375000
v -1.125000 -0.321304 -1.125000
v 1.125000 0.144984 -2.420852
v 0.375000 0.144984 -2.420852
v 0.375000 0.050212 -4.880977
v 1.125000 -0.335034 -0.375000
v 0.375000 -0.335034 -0.375000
v 0.375000 -0.335034 -1.125000
v 2.625000 -0.335034 -0.375000
v 1.875000 -0.335034 -0.375000
v 1.875000 -0.335034 -1.125000
v 2.625000 -0.321304 -1.125000
v 1.125000 -0.321304 -1.125000
v 1.125000 0.144984 -4.880977
v -0.375000 -0.335034 -1.125000
v -1.875000 -0.335034 -1.125000
v -1.875000 0.050212 -4.880977
v -0.375000 0.050213 2.420852
v -1.875000 0.144984 2.420852
v -1.875000 -0.335034 0.375000
v 2.625000 0.144984 2.420852
v 1.125000 0.050213 2.420852
v 1.125000 -0.335034 0.375000
v 2.625000 -0.335034 0.375000
v -0.375000 -0.335034 0.375000
v -0.375000 0.144984 -4.880977
v 2.625000 0.050212 -4.880977
v -3.000000 0.144985 6.920832
v 3.000000 0.050213 6.920832
v -3.000000 0.144984 -6.920832
v 3.000000 0.050212 -6.920832
v 0.000000 0.050213 6.920832
v 0.000000 0.050212 -6.920832
v 1.500000 0.050213 6.920832
v -1.500000 0.050212 -6.920832
v -1.500000 0.000001 6.920832
v 1.500000 0.144984 -6.920832
v 2.250000 0.050213 6.920832
v -2.250000 0.144984 -6.920832
v -0.750000 0.050213 6.920832
v 0.750000 0.050212 -6.920832
v 0.750000 0.050213 6.920832
v -0.750000 0.050212 -6.920832
v -2.250000 0.144985 6.920832
v 2.250000 0.050212 -6.920832
v 2.625000 0.144985 6.920832
v -2.625000 0.144984 -6.920832
v -0.375000 0.008358 6.920832
v 0.375000 0.008357 -6.920832
v 1.125000 0.144985 6.920832
v -1.125000 0.144984 -6.920832
v -1.875000 0.050213 6.920832
v 1.875000 0.144984 -6.920832
v 1.875000 0.144985 6.920832
v -1.875000 0.050212 -6.920832
v -1.125000 0.008358 6.920832
v 1.125000 0.050212 -6.920832
v 0.375000 0.144985 6.920832
v -0.375000 0.144984 -6.920832
v -2.625000 0.050213 6.920832
v 2.625000 0.144984 -6.920832
vn -0.0000 1.0000 -0.0000
vn 0.1243 0.9922 -0.0000
vn -0.0316 0.9994 0.0110
vn 0.1252 0.9912 -0.0435
vn 0.1655 0.9859 -0.0264
vn 0.0000 0.9998 -0.0222
vn 0.0557 0.9982 -0.0227
vn 0.0000 0.9947 -0.1024
vn 0.1252 0.9908 0.0510
vn 0.0557 0.9983 0.0193
vn -0.0929 0.9955 0.0206
vn 0.1373 0.9905 0.0049
vn -0.0952 0.6579 0.7470
vn 0.0000 0.6975 0.7166
vn -0.1252 0.9912 -0.0435
vn -0.0619 0.9981 -0.0000
vn -0.0930 0.9951 -0.0329
vn 0.0000 0.6267 0.7793
vn -0.1789 0.9819 -0.0621
vn -0.0729 0.9966 -0.0375
vn 0.0000 0.9995 -0.0314
vn 0.2450 0.9695 -0.0000
vn 0.0000 0.9975 -0.0713
vn 0.1235 0.9924 -0.0000
vn -0.0314 0.9994 0.0109
vn 0.0000 0.9947 0.1024
vn -0.1253 0.9913 0.0414
vn 0.0000 0.9993 0.0369
vn 0.0183 0.9997 -0.0183
vn 0.1253 0.9913 -0.0414
vn -0.2450 0.9695 -0.0000
vn 0.0000 0.9965 -0.0832
vn 0.0000 0.9993 -0.0366
vn -0.0183 0.9997 -0.0183
vn -0.0316 0.9994 -0.0110
vn -0.0453 0.9989 0.0157
vn 0.1253 0.9915 -0.0355
vn 0.1252 0.9912 0.0428
vn 0.1252 0.9912 0.0435
vn 0.0000 0.9998 0.0222
vn 0.1244 0.9920 0.0217
vn -0.1253 0.9915 -0.0355
vn 0.1253 0.9914 -0.0384
vn -0.1252 0.9908 0.0510
vn 0.1253 0.9912 0.0424
vn 0.1253 0.9913 0.0414
vn -0.1253 0.9913 -0.0414
vn -0.1789 0.9819 0.0621
vn -0.1789 0.9821 -0.0591
vn 0.0000 0.6267 -0.7793
vn 0.0952 0.6579 -0.7470
vn -0.0952 0.6579 -0.7470
vn -0.0400 0.7167 -0.6963
vn 0.0400 0.7167 -0.6963
vn -0.0000 0.9998 0.0220
vn -0.1252 0.9912 0.0435
vn -0.1648 0.9863 0.0049
vn -0.0307 0.9995 0.0111
vn 0.1253 0.9915 0.0355
vn 0.0316 0.9994 0.0110
vn -0.1787 0.9812 -0.0728
vn 0.0000 0.6975 -0.7166
vn 0.1789 0.9821 0.0591
vn 0.0453 0.9989 -0.0157
vn 0.1563 0.9875 -0.0195
vn 0.1789 0.9819 -0.0621
vn 0.0277 0.9996 0.0019
vn 0.0668 0.9976 -0.0155
vn -0.0557 0.9983 0.0158
vn -0.0000 0.9995 0.0315
vn 0.0310 0.9993 0.0205
vn 0.1789 0.9819 0.0621
vn -0.0557 0.9983 0.0193
vn -0.1789 0.9821 0.0591
vn -0.0948 0.9953 0.0213
vn -0.0668 0.9975 0.0232
vn -0.0628 0.9978 0.0218
vn 0.0952 0.6579 0.7470
vn 0.0183 0.9997 0.0183
vn -0.0183 0.9997 0.0183
vn 0.0000 0.9993 0.0366
vn -0.1252 0.9912 -0.0432
vn -0.1252 0.9912 -0.0433
vn -0.1252 0.9908 -0.0510
vn 0.0000 0.9962 -0.0874
vn 0.0000 0.9965 0.0832
vn 0.0557 0.9983 -0.0184
vn 0.0000 0.9975 0.0713
vn -0.1252 0.9912 0.0432
vn -0.1253 0.9913 0.0407
vn -0.1253 0.9915 0.0355
vn 0.1784 0.9840 0.0000
vn -0.1784 0.9840 0.0000
vn 0.0554 0.9985 0.0000
vn -0.0667 0.9978 0.0000
vn -0.0555 0.9985 0.0000
vn 0.1892 0.9819 0.0000
vn -0.1235 0.9924 0.0000
usemtl None
s 1
f 289//1 84//1 4//2 141//3
f 288//4 90//4 8//5 137//6
f 287//1 91//1 9//1 144//1
f 286//1 88//1 7//1 145//1
f 285//1 106//1 21//1 133//1
f 284//7 107//7 22//7 148//7
f 283//1 100//1 16//1 149//1
f 282//1 110//1 20//1 132//1
f 281//8 111//8 23//8 152//8
f 280//9 103//9 19//9 153//9
f 279//10 114//10 13//11 125//12
f 278//13 115//13 24//13 156//13
f 277//14 102//14 18//14 157//14
f 276//15 118//15 17//16 129//17
f 275//18 119//18 25//18 160//18
f 274//18 96//18 12//18 161//18
f 273//14 162//14 65//14 121//14
f 272//1 163//1 66//1 164//1
f 271//1 136//1 40//1 165//1
f 270//13 166//13 64//13 120//13
f 269//1 167//1 67//1 168//1
f 268//1 159//1 63//1 169//1
f 267//19 170//19 33//20 89//21
f 266//22 171//22 68//22 172//22
f 265//23 158//23 62//23 173//23
f 264//18 174//18 61//18 117//18
f 263//1 175//1 69//1 176//1
f 262//1 142//1 46//1 177//1
f 261//13 178//13 60//13 116//13
f 260//1 179//1 70//1 180//1
f 259//1 155//1 59//1 181//1
f 258//1 182//1 29//24 85//25
f 257//1 183//1 71//1 184//1
f 256//23 154//23 58//23 185//23
f 255//26 186//26 57//26 113//26
f 254//1 187//1 72//1 188//1
f 253//27 143//27 47//27 189//27
f 252//9 190//9 56//9 112//9
f 251//1 191//1 73//1 192//1
f 250//28 151//28 55//28 193//28
f 249//1 194//1 36//1 92//1
f 248//29 195//29 74//29 196//29
f 247//1 150//1 54//1 197//1
f 246//1 198//1 53//1 109//1
f 245//30 199//30 75//30 200//30
f 244//31 140//31 44//31 201//31
f 243//1 202//1 52//1 108//1
f 242//30 203//30 76//30 204//30
f 241//32 147//32 51//32 205//32
f 240//1 206//1 37//1 93//1
f 239//33 207//33 77//33 208//33
f 238//1 146//1 50//1 209//1
f 237//1 210//1 49//1 105//1
f 236//34 211//34 78//34 212//34
f 235//33 128//33 32//33 213//33
f 234//1 214//1 48//1 104//1
f 233//33 215//33 79//33 216//33
f 232//29 131//29 35//29 217//29
f 231//1 218//1 41//35 97//36
f 230//37 219//37 80//37 220//37
f 229//23 130//23 34//23 221//23
f 228//38 222//39 45//40 101//41
f 227//31 223//31 81//31 224//31
f 226//42 124//42 28//42 225//42
f 223//37 226//37 225//43 81//43
f 65//44 161//44 226//44 223//44
f 161//1 12//1 124//1 226//1
f 158//37 227//37 224//37 62//37
f 25//22 121//22 227//22 158//22
f 121//44 65//44 223//44 227//44
f 118//45 228//38 101//41 17//16
f 62//46 224//46 228//38 118//45
f 224//47 81//47 222//47 228//47
f 219//23 229//23 221//23 80//23
f 61//9 157//9 229//9 219//9
f 157//26 18//26 130//26 229//26
f 154//42 230//42 220//42 58//42
f 24//1 117//1 230//1 154//1
f 117//1 61//1 219//1 230//1
f 114//48 231//48 97//36 13//11
f 58//49 220//49 231//49 114//49
f 220//1 80//1 218//1 231//1
f 215//33 232//33 217//33 79//33
f 57//50 153//50 232//50 215//50
f 153//51 19//51 131//51 232//51
f 150//34 233//34 216//34 54//34
f 23//52 113//52 233//52 150//52
f 113//50 57//50 215//50 233//50
f 110//1 234//1 104//1 20//1
f 54//1 216//1 234//1 110//1
f 216//1 79//1 214//1 234//1
f 211//33 235//33 213//33 78//33
f 53//50 149//50 235//50 211//50
f 149//50 16//50 128//50 235//50
f 146//1 236//1 212//1 50//1
f 22//53 109//53 236//53 146//53
f 109//52 53//52 211//52 236//52
f 106//1 237//1 105//1 21//1
f 50//1 212//1 237//1 106//1
f 212//1 78//1 210//1 237//1
f 207//29 238//29 209//29 77//29
f 52//51 148//51 238//51 207//51
f 148//54 22//54 146//54 238//54
f 131//34 239//34 208//34 35//34
f 19//52 108//52 239//52 131//52
f 108//50 52//50 207//50 239//50
f 91//1 240//1 93//1 9//1
f 35//1 208//1 240//1 91//1
f 208//1 77//1 206//1 240//1
f 203//32 241//32 205//32 76//32
f 39//55 95//40 241//56 203//56
f 95//40 11//55 147//39 241//39
f 143//27 242//27 204//27 47//27
f 6//57 135//58 242//31 143//31
f 135//58 39//55 203//39 242//39
f 103//31 243//31 108//31 19//31
f 47//42 204//42 243//42 103//42
f 204//59 76//59 202//59 243//59
f 199//30 244//30 201//30 75//30
f 27//60 83//1 244//1 199//1
f 83//1 2//2 140//1 244//1
f 147//47 245//47 200//47 51//47
f 11//55 123//40 245//56 147//56
f 123//40 27//60 199//39 245//39
f 107//61 246//61 109//61 22//61
f 51//31 200//31 246//31 107//31
f 200//22 75//22 198//22 246//22
f 195//1 247//1 197//1 74//1
f 56//62 152//62 247//62 195//62
f 152//62 23//62 150//62 247//62
f 94//33 248//33 196//33 38//33
f 10//50 112//50 248//50 94//50
f 112//51 56//51 195//51 248//51
f 134//1 249//1 92//1 5//1
f 38//1 196//1 249//1 134//1
f 196//1 74//1 194//1 249//1
f 191//63 250//63 193//63 73//63
f 43//64 99//65 250//66 191//66
f 99//65 15//67 151//68 250//68
f 82//49 251//49 192//49 26//49
f 1//2 139//1 251//1 82//1
f 139//1 43//64 191//1 251//1
f 122//26 252//26 112//26 10//26
f 26//69 192//69 252//69 122//69
f 192//42 73//42 190//42 252//42
f 187//30 253//30 189//30 72//30
f 31//70 87//71 253//72 187//72
f 87//71 6//57 143//73 253//73
f 151//74 254//74 188//74 55//74
f 15//67 127//75 254//76 151//76
f 127//75 31//70 187//48 254//48
f 111//1 255//1 113//1 23//1
f 55//1 188//1 255//1 111//1
f 188//37 72//37 186//37 255//37
f 183//23 256//23 185//23 71//23
f 60//9 156//9 256//9 183//9
f 156//44 24//44 154//44 256//44
f 98//59 257//59 184//59 42//59
f 14//22 116//22 257//22 98//22
f 116//31 60//31 183//31 257//31
f 138//56 258//56 85//25 3//77
f 42//47 184//47 258//47 138//47
f 184//46 71//46 182//46 258//46
f 179//1 259//1 181//1 70//1
f 36//1 132//1 259//1 179//1
f 132//1 20//1 155//1 259//1
f 86//1 260//1 180//1 30//1
f 5//1 92//1 260//1 86//1
f 92//1 36//1 179//1 260//1
f 126//78 261//78 116//78 14//78
f 30//79 180//79 261//79 126//79
f 180//80 70//80 178//80 261//80
f 175//1 262//1 177//1 69//1
f 48//1 144//1 262//1 175//1
f 144//1 9//1 142//1 262//1
f 155//1 263//1 176//1 59//1
f 20//1 104//1 263//1 155//1
f 104//1 48//1 175//1 263//1
f 115//18 264//18 117//18 24//18
f 59//81 176//81 264//81 115//81
f 176//81 69//81 174//81 264//81
f 171//82 265//83 173//42 68//42
f 64//84 160//84 265//83 171//82
f 160//1 25//1 158//1 265//1
f 130//42 266//42 172//42 34//42
f 18//26 120//26 266//26 130//26
f 120//1 64//1 171//1 266//1
f 90//66 267//66 89//21 8//5
f 34//1 172//1 267//1 90//1
f 172//1 68//1 170//1 267//1
f 167//1 268//1 169//1 67//1
f 37//1 133//1 268//1 167//1
f 133//1 21//1 159//1 268//1
f 142//1 269//1 168//1 46//1
f 9//1 93//1 269//1 142//1
f 93//1 37//1 167//1 269//1
f 102//14 270//14 120//14 18//14
f 46//1 168//1 270//1 102//1
f 168//80 67//80 166//80 270//80
f 163//1 271//1 165//1 66//1
f 49//1 145//1 271//1 163//1
f 145//1 7//1 136//1 271//1
f 159//1 272//1 164//1 63//1
f 21//1 105//1 272//1 159//1
f 105//1 49//1 163//1 272//1
f 119//78 273//78 121//78 25//78
f 63//79 164//79 273//79 119//79
f 164//1 66//1 162//1 273//1
f 162//13 274//13 161//13 65//13
f 66//80 165//80 274//80 162//80
f 165//81 40//81 96//81 274//81
f 166//18 275//18 160//18 64//18
f 67//81 169//81 275//81 166//81
f 169//81 63//81 119//81 275//81
f 170//85 276//85 129//17 33//20
f 68//86 173//86 276//86 170//86
f 173//86 62//86 118//86 276//86
f 174//78 277//78 157//78 61//78
f 69//79 177//79 277//79 174//79
f 177//1 46//1 102//1 277//1
f 178//78 278//78 156//78 60//78
f 70//79 181//79 278//79 178//79
f 181//80 59//80 115//80 278//80
f 182//22 279//22 125//12 29//24
f 71//46 185//46 279//46 182//46
f 185//87 58//87 114//87 279//87
f 186//26 280//26 153//26 57//26
f 72//1 189//1 280//1 186//1
f 189//42 47//42 103//42 280//42
f 190//84 281//84 152//84 56//84
f 73//1 193//1 281//1 190//1
f 193//88 55//88 111//88 281//88
f 194//1 282//1 132//1 36//1
f 74//1 197//1 282//1 194//1
f 197//1 54//1 110//1 282//1
f 198//89 283//90 149//44 53//44
f 75//91 201//91 283//90 198//89
f 201//91 44//91 100//91 283//90
f 202//22 284//22 148//22 52//22
f 76//59 205//59 284//59 202//59
f 205//1 51//1 107//1 284//1
f 206//1 285//1 133//1 37//1
f 77//1 209//1 285//1 206//1
f 209//1 50//1 106//1 285//1
f 210//1 286//1 145//1 49//1
f 78//1 213//1 286//1 210//1
f 213//1 32//1 88//1 286//1
f 214//1 287//1 144//1 48//1
f 79//1 217//1 287//1 214//1
f 217//1 35//1 91//1 287//1
f 218//15 288//15 137//6 41//35
f 80//86 221//86 288//86 218//86
f 221//86 34//86 90//86 288//86
f 222//56 289//56 141//3 45//40
f 81//43 225//43 289//30 222//30
f 225//31 28//31 84//31 289//31
f 11//55 95//40 312//1 296//1
f 83//1 27//60 300//1 308//1
f 101//41 45//40 307//1 315//24
f 45//40 141//3 323//1 307//1
f 8//5 89//21 311//1 295//92
f 139//1 1//2 290//22 322//1
f 85//25 29//24 301//24 309//1
f 6//57 87//71 310//1 294//93
f 137//6 8//5 295//92 321//1
f 97//36 41//35 305//1 313//1
f 2//2 83//1 308//1 291//22
f 29//24 125//12 317//24 301//24
f 135//58 6//57 294//93 320//1
f 43//64 139//1 322//1 306//1
f 127//75 15//67 298//94 318//95
f 89//21 33//20 303//96 311//1
f 99//65 43//64 306//1 314//97
f 31//70 127//75 318//95 302//1
f 39//55 135//58 320//1 304//1
f 123//40 11//55 296//1 316//1
f 17//16 101//41 315//24 299//98
f 27//60 123//40 316//1 300//1
f 15//67 99//65 314//97 298//94
f 129//17 17//16 299//98 319//98
f 33//20 129//17 319//98 303//96
f 95//40 39//55 304//1 312//1
f 3//77 85//25 309//1 292//1
f 125//12 13//11 297//98 317//24
f 41//35 137//6 321//1 305//1
f 141//3 4//2 293//22 323//1
f 13//11 97//36 313//1 297//98
f 87//71 31//70 302//1 310//1
