# Blender v2.79 (sub 0) OBJ File: ''
# www.blender.org
mtllib waveController.mtl
o Cube.001_Cube.005
v -3.906245 -0.087361 0.132931
v -3.906245 -0.087361 -0.150255
v -3.906245 -0.529839 -0.008662
v -3.906245 -0.087361 -0.008662
v -3.002229 -0.087361 -0.008662
v -3.906245 -0.258659 0.132931
v -3.906245 -0.410884 0.091460
v -3.906245 -0.258659 -0.150255
v -3.906245 -0.410884 -0.108784
v -3.615338 -0.087361 0.100045
v -3.002229 -0.087361 0.029573
v -3.002229 -0.087361 -0.046897
v -3.615338 -0.087361 -0.117369
v -3.002229 -0.299939 -0.008662
v -3.615338 -0.529839 -0.008662
v -3.002229 -0.221329 0.029573
v -3.615338 -0.258659 0.100045
v -3.002229 -0.294573 -0.001605
v -3.615338 -0.410884 0.068206
v -3.002229 -0.221329 -0.046897
v -3.615338 -0.258659 -0.117369
v -3.002229 -0.294573 -0.015719
v -3.615338 -0.410884 -0.085530
vn 0.0000 1.0000 0.0000
vn 0.1123 0.0000 -0.9937
vn 0.0321 -0.5966 0.8019
vn 0.1123 0.0000 0.9937
vn 1.0000 0.0000 0.0000
vn -1.0000 0.0000 0.0000
vn 0.0934 -0.2331 0.9680
vn 0.0321 -0.5966 -0.8019
vn 0.0934 -0.2331 -0.9680
vn 0.1424 -0.2664 -0.9533
vn 0.1424 -0.2664 0.9533
vn 0.1142 0.0000 0.9935
vn 0.1142 0.0000 -0.9935
vn 0.2010 -0.5481 -0.8119
vn 0.2010 -0.5481 0.8119
usemtl None
s off
f 12//1 13//1 2//1 4//1 5//1
f 8//2 2//2 13//2 21//2
f 3//3 15//3 19//3 7//3
f 17//4 10//4 1//4 6//4
f 14//5 22//5 20//5 12//5 5//5
f 3//6 4//6 2//6 8//6 9//6
f 14//5 5//5 11//5 16//5 18//5
f 7//7 19//7 17//7 6//7
f 15//8 3//8 9//8 23//8
f 23//9 9//9 8//9 21//9
f 3//6 7//6 6//6 1//6 4//6
f 20//10 22//10 23//10 21//10
f 18//11 16//11 17//11 19//11
f 16//12 11//12 10//12 17//12
f 12//13 20//13 21//13 13//13
f 22//14 14//14 15//14 23//14
f 14//15 18//15 19//15 15//15
f 5//1 4//1 1//1 10//1 11//1
